<svg width="29" height="30" viewBox="0 0 29 30" fill="none" xmlns="http://www.w3.org/2000/svg">
<path d="M5.23437 18.6719L0.15625 19.6094V30H6.71875L9.375 21.4062L20.3125 16.3281L10.3906 17.7344L11.7969 13.2031L5.23437 18.6719Z" fill="#EAEAEA"/>
<path d="M6.95312 0H0L12.1094 8.67187L14.5312 15.7812L15.5469 11.3281L19.4531 14.0625L15.7812 10.0781L18.3594 0.3125C17.9219 0.0625 16.4583 0 15.7812 0H9.21875L10.3906 3.90625L6.95312 0Z" fill="#EAEAEA"/>
<path d="M20.4688 10.4687L25.2344 3.98438C26.4844 4.92187 27.526 6.45833 27.8906 7.10937L20.4688 10.4687Z" fill="#EAEAEA"/>
<path d="M22.5781 22.1875L21.4844 14.2188L28.125 22.5C26 26.6875 21.3021 28.8281 19.2188 29.375L19.6094 20.9375L22.5781 22.1875Z" fill="#EAEAEA"/>
</svg>
